<svg width="16" height="16" viewBox="0 0 16 16" fill="none" xmlns="http://www.w3.org/2000/svg">
<g clip-path="url(#clip0_106_8174)">
<path d="M4.938 13L7.2375 8.9485L5.05845 5.0065H6.19725L7.4346 7.3717C7.5003 7.4958 7.566 7.63085 7.6317 7.77685C7.7047 7.91555 7.7631 8.02505 7.8069 8.10535C7.8434 8.02505 7.8945 7.91555 7.9602 7.77685C8.0332 7.63085 8.10255 7.4958 8.16825 7.3717L9.4275 5.0065H10.5116L8.3325 8.8828L10.632 13H9.50415L8.1354 10.4596C8.0697 10.3355 8.00035 10.2041 7.92735 10.0654C7.86165 9.9194 7.81055 9.8026 7.77405 9.715C7.73755 9.8026 7.6828 9.91575 7.6098 10.0544C7.5441 10.1931 7.4784 10.3246 7.4127 10.4486L6.033 13H4.938Z" fill="#545454"/>
</g>
<defs>
<clipPath id="clip0_106_8174">
<rect width="16" height="16" fill="white"/>
</clipPath>
</defs>
</svg>
