<svg width="16" height="16" viewBox="0 0 16 16" fill="none" xmlns="http://www.w3.org/2000/svg">
<path d="M14 5.5V12.5556C14 12.6735 13.9532 12.7865 13.8698 12.8698C13.7865 12.9532 13.6735 13 13.5556 13H2.5C2.36739 13 2.24021 12.9473 2.14645 12.8536C2.05268 12.7598 2 12.6326 2 12.5V4C2 3.86739 2.05268 3.74021 2.14645 3.64645C2.24021 3.55268 2.36739 3.5 2.5 3.5H5.83313C5.94131 3.5 6.04658 3.53509 6.13312 3.6L8 5H13.5C13.6326 5 13.7598 5.05268 13.8536 5.14645C13.9473 5.24021 14 5.36739 14 5.5Z" stroke="#545454" stroke-width="1.2" stroke-linecap="round" stroke-linejoin="round"/>
</svg>
