<svg width="16" height="16" viewBox="0 0 16 16" fill="none" xmlns="http://www.w3.org/2000/svg">
<path d="M12.5 2.5V13.5" stroke="#545454" stroke-width="1.2" stroke-linecap="round" stroke-linejoin="round"/>
<path d="M3.5 2.9925V13.0075C3.50181 13.0956 3.52684 13.1816 3.57258 13.2569C3.61831 13.3321 3.68312 13.394 3.76044 13.4362C3.83777 13.4784 3.92486 13.4994 4.01292 13.4971C4.10097 13.4948 4.18685 13.4693 4.26188 13.4231L12.2688 8.41562C12.3394 8.3717 12.3977 8.31048 12.4381 8.23776C12.4786 8.16503 12.4998 8.0832 12.4998 8C12.4998 7.9168 12.4786 7.83497 12.4381 7.76224C12.3977 7.68952 12.3394 7.6283 12.2688 7.58437L4.26188 2.57688C4.18685 2.53072 4.10097 2.50521 4.01292 2.50292C3.92486 2.50062 3.83777 2.52163 3.76044 2.56381C3.68312 2.606 3.61831 2.66786 3.57258 2.74313C3.52684 2.81841 3.50181 2.90444 3.5 2.9925Z" stroke="#545454" stroke-width="1.2" stroke-linecap="round" stroke-linejoin="round"/>
</svg>
