<svg width="16" height="16" viewBox="0 0 16 16" fill="none" xmlns="http://www.w3.org/2000/svg">
<path d="M4.5 2.4925V13.5075C4.50163 13.5954 4.52641 13.6813 4.57184 13.7566C4.61727 13.8318 4.68174 13.8938 4.75875 13.9362C4.83576 13.9786 4.92259 14 5.01048 13.9981C5.09837 13.9962 5.18422 13.9712 5.25938 13.9256L14.2644 8.41812C14.3363 8.37459 14.3958 8.31323 14.4371 8.23998C14.4784 8.16674 14.5 8.08408 14.5 8C14.5 7.91592 14.4784 7.83326 14.4371 7.76002C14.3958 7.68677 14.3363 7.62541 14.2644 7.58187L5.25938 2.07437C5.18422 2.02875 5.09837 2.00376 5.01048 2.0019C4.92259 2.00004 4.83576 2.02139 4.75875 2.06379C4.68174 2.1062 4.61727 2.16815 4.57184 2.24342C4.52641 2.31869 4.50163 2.4046 4.5 2.4925Z" stroke="#545454" stroke-width="1.2" stroke-linecap="round" stroke-linejoin="round"/>
</svg>
