<svg width="16" height="16" viewBox="0 0 16 16" fill="none" xmlns="http://www.w3.org/2000/svg">
<path d="M3.5 2.5V13.5" stroke="#545454" stroke-width="1.2" stroke-linecap="round" stroke-linejoin="round"/>
<path d="M12.4998 2.9925V13.0075C12.498 13.0956 12.4729 13.1816 12.4272 13.2569C12.3815 13.3321 12.3167 13.394 12.2393 13.4362C12.162 13.4784 12.0749 13.4994 11.9869 13.4971C11.8988 13.4948 11.8129 13.4693 11.7379 13.4231L3.73103 8.41562C3.66036 8.3717 3.60206 8.31048 3.56164 8.23776C3.52121 8.16503 3.5 8.0832 3.5 8C3.5 7.9168 3.52121 7.83497 3.56164 7.76224C3.60206 7.68952 3.66036 7.6283 3.73103 7.58437L11.7379 2.57688C11.8129 2.53072 11.8988 2.50521 11.9869 2.50292C12.0749 2.50062 12.162 2.52163 12.2393 2.56381C12.3167 2.606 12.3815 2.66786 12.4272 2.74313C12.4729 2.81841 12.498 2.90444 12.4998 2.9925Z" stroke="#545454" stroke-width="1.2" stroke-linecap="round" stroke-linejoin="round"/>
</svg>
