<svg width="16" height="16" viewBox="0 0 16 16" fill="none" xmlns="http://www.w3.org/2000/svg">
<path d="M6 10L10 6" stroke="#545454" stroke-width="1.2" stroke-linecap="round" stroke-linejoin="round"/>
<path d="M7 4.75688L8.87875 2.88188C9.44291 2.32683 10.2035 2.0172 10.9949 2.02043C11.7864 2.02365 12.5444 2.33946 13.104 2.89908C13.6637 3.4587 13.9795 4.21677 13.9827 5.00819C13.9859 5.7996 13.6763 6.56022 13.1213 7.12438L11.2425 9" stroke="#545454" stroke-width="1.2" stroke-linecap="round" stroke-linejoin="round"/>
<path d="M4.75698 7L2.88198 8.87875C2.32694 9.44291 2.01731 10.2035 2.02053 10.9949C2.02376 11.7864 2.33957 12.5444 2.89919 13.104C3.4588 13.6637 4.21688 13.9795 5.00829 13.9827C5.7997 13.9859 6.56033 13.6763 7.12448 13.1213L9.00011 11.2425" stroke="#545454" stroke-width="1.2" stroke-linecap="round" stroke-linejoin="round"/>
</svg>
