<svg width="16" height="16" viewBox="0 0 16 16" fill="none" xmlns="http://www.w3.org/2000/svg">
<path d="M8 8.75C8.41421 8.75 8.75 8.41421 8.75 8C8.75 7.58579 8.41421 7.25 8 7.25C7.58579 7.25 7.25 7.58579 7.25 8C7.25 8.41421 7.58579 8.75 8 8.75Z" fill="#545454"/>
<path d="M12.25 8.75C12.6642 8.75 13 8.41421 13 8C13 7.58579 12.6642 7.25 12.25 7.25C11.8358 7.25 11.5 7.58579 11.5 8C11.5 8.41421 11.8358 8.75 12.25 8.75Z" fill="#545454"/>
<path d="M3.75 8.75C4.16421 8.75 4.5 8.41421 4.5 8C4.5 7.58579 4.16421 7.25 3.75 7.25C3.33579 7.25 3 7.58579 3 8C3 8.41421 3.33579 8.75 3.75 8.75Z" fill="#545454"/>
</svg>
