<svg width="16" height="16" viewBox="0 0 16 16" fill="none" xmlns="http://www.w3.org/2000/svg">
<g clip-path="url(#clip0_85_2678)">
<path d="M13.5004 4.595C12.7835 3.91625 11.5629 3.5 10.5004 3.5C9.59166 3.49789 8.70951 3.80664 8.00041 4.375C7.30609 3.8183 6.4453 3.51025 5.55541 3.5C3.25041 3.46875 1.44166 5.39375 1.50041 7.69938C1.52551 8.68778 1.74641 9.66139 2.15032 10.5638C2.55424 11.4663 3.13315 12.2797 3.85354 12.9569C4.22462 13.3066 4.71552 13.5009 5.22541 13.5H10.7067C10.9789 13.5011 11.2484 13.4462 11.4985 13.3387C11.7486 13.2312 11.9739 13.0733 12.1604 12.875C13.151 11.8125 13.5004 10.8 13.5004 10.8C12.451 10.0794 12.0004 8.87063 12.0004 7.50125C12.0004 6.3575 12.7304 5.32563 13.5004 4.59625V4.595Z" stroke="#545454" stroke-width="1.2" stroke-linecap="round" stroke-linejoin="round"/>
<path d="M10.5 0.5H10.4375C9.99394 0.499777 9.56288 0.647014 9.21215 0.918553C8.86141 1.19009 8.61089 1.57052 8.5 2" stroke="#545454" stroke-width="1.2" stroke-linecap="round" stroke-linejoin="round"/>
</g>
<defs>
<clipPath id="clip0_85_2678">
<rect width="16" height="16" fill="white"/>
</clipPath>
</defs>
</svg>
