<svg width="16" height="16" viewBox="0 0 16 16" fill="none" xmlns="http://www.w3.org/2000/svg">
<path d="M14.7082 6.5L11.3663 9.85313C11.6513 10.645 11.7694 11.9713 10.5419 13.6031C10.4561 13.7179 10.3465 13.8127 10.2206 13.8812C10.0947 13.9497 9.95552 13.9902 9.81255 14C9.7888 14 9.76567 14 9.74192 14C9.61052 14 9.4804 13.9741 9.359 13.9239C9.2376 13.8736 9.12731 13.7998 9.03442 13.7069L6.01817 10.6875L3.3538 13.3538C3.25998 13.4476 3.13273 13.5003 3.00005 13.5003C2.86736 13.5003 2.74012 13.4476 2.6463 13.3538C2.55248 13.2599 2.49977 13.1327 2.49977 13C2.49977 12.8673 2.55248 12.7401 2.6463 12.6463L5.31255 9.98188L2.2938 6.96313C2.19457 6.86378 2.11738 6.74465 2.06725 6.61349C2.01712 6.48233 1.99517 6.34208 2.00283 6.20187C2.0105 6.06167 2.0476 5.92465 2.11173 5.79974C2.17586 5.67483 2.26558 5.56482 2.37505 5.47688C3.9638 4.195 5.48442 4.44688 6.15005 4.65563L9.50005 1.29375C9.59291 1.20087 9.70316 1.12719 9.8245 1.07692C9.94584 1.02665 10.0759 1.00078 10.2072 1.00078C10.3386 1.00078 10.4686 1.02665 10.59 1.07692C10.7113 1.12719 10.8216 1.20087 10.9144 1.29375L14.7075 5.08625C14.895 5.27369 15.0004 5.52789 15.0005 5.793C15.0006 6.0581 14.8955 6.3124 14.7082 6.5Z" fill="#545454"/>
</svg>
