<?xml version="1.0" encoding="UTF-8" standalone="no"?>
<!-- Created with Inkscape (http://www.inkscape.org/) -->

<svg
   width="1280"
   height="320"
   viewBox="0 0 338.66665 84.666668"
   version="1.1"
   id="svg1"
   xml:space="preserve"
   inkscape:version="1.4.2 (ebf0e940d0, 2025-05-08)"
   sodipodi:docname="banner.svg"
   inkscape:export-filename="banner.png"
   inkscape:export-xdpi="96"
   inkscape:export-ydpi="96"
   xmlns:inkscape="http://www.inkscape.org/namespaces/inkscape"
   xmlns:sodipodi="http://sodipodi.sourceforge.net/DTD/sodipodi-0.dtd"
   xmlns="http://www.w3.org/2000/svg"
   xmlns:svg="http://www.w3.org/2000/svg"><sodipodi:namedview
     id="namedview1"
     pagecolor="#ffffff"
     bordercolor="#000000"
     borderopacity="0.25"
     inkscape:showpageshadow="2"
     inkscape:pageopacity="0.0"
     inkscape:pagecheckerboard="true"
     inkscape:deskcolor="#d1d1d1"
     inkscape:document-units="px"
     showgrid="true"
     inkscape:zoom="0.5"
     inkscape:cx="481"
     inkscape:cy="117"
     inkscape:window-width="1920"
     inkscape:window-height="1000"
     inkscape:window-x="0"
     inkscape:window-y="0"
     inkscape:window-maximized="1"
     inkscape:current-layer="layer1"
     inkscape:export-bgcolor="#ffffff00"><inkscape:grid
       id="grid1"
       units="px"
       originx="0"
       originy="0"
       spacingx="0.26458333"
       spacingy="0.26458333"
       empcolor="#0099e5"
       empopacity="0.30196078"
       color="#0099e5"
       opacity="0.14901961"
       empspacing="8"
       enabled="true"
       visible="true" /></sodipodi:namedview><defs
     id="defs1" /><g
     inkscape:label="Layer 1"
     inkscape:groupmode="layer"
     id="layer1"><rect
       style="fill:#ffffff;fill-opacity:1;stroke:none;stroke-width:9.99999;stroke-linecap:square;paint-order:markers stroke fill"
       id="rect1"
       width="338.66666"
       height="84.666664"
       x="0"
       y="0"
       ry="4.2333331" /><path
       d="m 143.93333,12.7 c -2.34526,0 -4.23333,1.888085 -4.23333,4.233352 v 11.031986 l 28.58665,28.586822 c 0.82917,0.829179 0.82917,2.164192 0,2.993371 l -1.49662,1.496755 c -0.82916,0.829178 -2.16431,0.829178 -2.99349,0 L 139.7,36.945591 v 30.787721 c 0,2.345269 1.88807,4.233354 4.23333,4.233354 h 50.79965 c 2.34526,0 4.23333,-1.888085 4.23333,-4.233354 V 46.82633 l -14.21588,14.215956 a 2.1166543,2.1166672 0 0 1 -2.99348,0 L 153.31974,32.604772 a 2.1166535,2.1166664 0 0 1 0,-2.993374 l 5.9867,-5.986881 a 2.1166562,2.1166691 0 0 1 2.99336,0 l 0.74831,0.74831 -2.24491,2.245063 c -0.41459,0.414588 -0.41459,1.082165 0,1.496754 l 0.74831,0.74831 c 0.41456,0.414588 1.08214,0.414588 1.49674,0 l 2.24504,-2.244927 2.24505,2.244927 -0.74845,0.748444 c -0.41456,0.41459 -0.41456,1.08203 0,1.496618 l 0.74845,0.748446 c 0.41459,0.41459 1.08202,0.41459 1.49661,0 l 0.74831,-0.748446 2.24518,2.245064 -2.24504,2.245062 c -0.4146,0.41459 -0.41474,1.082166 -1.4e-4,1.496756 l 0.74844,0.748446 c 0.41459,0.414586 1.08215,0.414451 1.49674,-1.38e-4 l 2.24491,-2.245064 2.24519,2.245202 -0.74843,0.748308 c -0.4146,0.41459 -0.4146,1.082028 0,1.496617 l 0.74843,0.748446 c 0.41459,0.414589 1.08203,0.414589 1.49661,0 l 0.74844,-0.748446 2.24163,2.241645 0.004,0.0034 -2.24491,2.245064 c -0.41459,0.414589 -0.41459,1.082165 0,1.496754 l 0.74831,0.74831 c 0.41457,0.414588 1.08216,0.414588 1.49674,0 l 2.24505,-2.244927 2.24505,2.244927 c 0.41459,0.414588 1.08202,0.414725 1.49661,1.37e-4 l 0.74843,-0.748447 c 0.41459,-0.414589 0.41445,-1.08203 -1.4e-4,-1.496617 l -2.2449,-2.245063 8.8e-4,-0.0013 2.24381,-2.243833 0.7483,0.748308 c 0.41459,0.41459 1.08216,0.414728 1.49676,1.38e-4 l 0.74844,-0.748446 c 0.41457,-0.414589 0.41444,-1.082166 -1.3e-4,-1.496755 l -0.74831,-0.748307 2.24518,-2.245064 2.24491,2.245064 c 0.41459,0.414588 1.08217,0.414588 1.49674,0 l 0.74844,-0.74831 c 0.41459,-0.414588 0.41446,-1.082165 -1.2e-4,-1.496754 l -2.24506,-2.245063 2.24506,-2.245063 0.7483,0.748308 c 0.41366,0.413676 1.07923,0.414587 1.49401,0.0027 V 16.933391 c 0,-2.345269 -1.88808,-4.233352 -4.23333,-4.233352 z"
       fill="#303030"
       id="path1"
       style="stroke-width:1.05833" /></g></svg>
