<svg height="64mm" viewBox="0 0 64 64" width="64mm" xmlns="http://www.w3.org/2000/svg"><path d="m8.0000123 4c-2.2159989 0-4.0000123 1.7840162-4.0000123 4.0000185v10.4239225l27.011127 27.011171c.783474.783476.783474 2.044907 0 2.828383l-1.414125 1.414256c-.783474.783476-2.045033.783476-2.828507 0l-22.768495-22.768531v29.090761c0 2.216002 1.7840134 4.000019 4.0000123 4.000019h47.9998867c2.215999 0 4.000014-1.784017 4.000014-4.000019v-19.754629l-13.432379 13.432399a1.9999974 2.0000005 0 0 1 -2.828506 0l-26.869923-26.870093a1.9999966 1.9999998 0 0 1 0-2.828384l5.656758-5.656896a1.9999991 2.0000023 0 0 1 2.82838 0l.707062.707064-2.121188 2.12132c-.391737.391737-.391737 1.022518 0 1.414256l.707062.707064c.391736.391737 1.022516.391737 1.414253 0l2.121316-2.121191 2.121317 2.121191-.70719.707192c-.391737.391738-.391737 1.02239 0 1.414127l.70719.707193c.391737.391738 1.022389.391738 1.414126 0l.707063-.707193 2.121443 2.12132-2.121316 2.12132c-.391735.391738-.391865 1.022519-.000127 1.414257l.707192.707193c.391735.391735 1.022517.391607 1.414251-.00013l2.121189-2.12132 2.121444 2.12145-.707189.707063c-.391738.391738-.391738 1.022388 0 1.414126l.707189.707193c.391738.391738 1.02239.391738 1.414127 0l.70719-.707193 2.118089 2.11809.0031.0032-2.121189 2.12132c-.391735.391738-.391735 1.022518 0 1.414256l.707065.707064c.391734.391737 1.022517.391737 1.414251 0l2.121317-2.12119 2.121319 2.12119c.391735.391737 1.022384.391867 1.414124.00013l.707192-.707194c.391735-.391738.391608-1.022391-.00013-1.414126l-2.121186-2.12132.0012-.0012 2.120154-2.120157.707062.707063c.391737.391738 1.022517.391868 1.414254.00013l.70719-.707193c.391737-.391738.39161-1.022519-.000128-1.414257l-.707062-.707062 2.121444-2.12132 2.121189 2.12132c.391735.391737 1.022517.391737 1.414252 0l.707192-.707064c.391737-.391737.391607-1.022518-.000127-1.414256l-2.121317-2.12132 2.121317-2.12132.707062.707063c.390872.390875 1.019747.391736 1.411669.0026v-14.1030722c0-2.2160024-1.784014-4.0000185-4.000013-4.0000185z" fill="#303030"/></svg>